<?xml version="1.0" encoding="UTF-8" standalone="no"?>
<svg xmlns:rdf="http://www.w3.org/1999/02/22-rdf-syntax-ns#" xmlns="http://www.w3.org/2000/svg" enable-background="new 99.938 -236.648 800.225 799.943" xml:space="preserve" height="201.97" viewBox="99.938 -236.648 202.05617 201.97461" width="202.06" version="1.1" y="0px" x="0px" xmlns:cc="http://creativecommons.org/ns#" xmlns:xlink="http://www.w3.org/1999/xlink" xmlns:dc="http://purl.org/dc/elements/1.1/"><path fill="#44c8f5" d="m201.03-235.71c-18.898 0-36.83 5.2909-51.875 14.514-4.5132 2.7772-7.0527 5.0023-7.0527 7.8638 0 8.4338 19.71 17.502 54.678 17.502 34.605 0 61.446-9.9324 61.446-19.494 0.0005-2.2818-1.994-3.8788-6.0303-6.2891-14.991-8.9852-32.399-14.097-51.166-14.097zm-64.522 23.655c-0.0411-0.002-0.10142 0.0224-0.16845 0.0801-5.1665 4.3785-9.9136 9.305-14.078 14.623-1.9895 2.5152-3.2241 4.7439-3.2241 6.0786 0 19.443 48.754 33.541 94.34 33.541 48.573 0 70.251-15.857 70.251-29.792 0-4.9802-1.939-7.8877-6.898-13.524-3.2192-3.667-6.2638-6.6523-9.4868-9.5913-0.15575-0.128-0.26426-0.023-0.15576 0.13379 0.4205 0.65825 0.62988 1.3611 0.62988 2.3076-0.00025 11.11-34.001 30.763-88.127 30.763-39.77 0-47.215-14.754-47.215-24.136 0-3.3538 1.2866-6.7855 4.1196-10.271 0.0967-0.12953 0.0813-0.20934 0.0127-0.21338zm154.2 32.131c-0.04 0.009-0.0671 0.061-0.0532 0.15234 0.865 25.972-71.562 42.71-108.11 42.71-39.583 0-72.606-15.771-72.606-35.685 0-1.913 0.39588-3.8274 0.89013-5.8188 0.0495-0.18275-0.10652-0.21297-0.18652-0.0532-2.933 5.8218-6.1846 15.644-7.1514 20.727-0.42375 2.1778-0.24324 3.2241 0.52051 4.8491 6.1362 13.019 37.174 33.849 109.57 33.849 44.168 0 78.479-10.851 84.038-30.652 1.024-3.6452 1.0784-7.4942-0.23632-12.68-1.469-5.7955-4.2206-12.553-6.5493-17.298-0.0385-0.0775-0.0918-0.11041-0.13184-0.10107zm10.135 38.567c-0.0453-0.006-0.0974 0.0535-0.12403 0.1836-3.6438 19.548-65.95 45.538-119.79 45.538-51.196 0-75.335-23.843-79.713-40.115-0.0543-0.23575-0.20948-0.1844-0.20948 0.0269 0 5.4778 0.54819 12.547 1.4922 17.239 0.44975 2.2845 2.3084 5.8686 5.0337 8.7256 12.397 12.922 43.303 31.028 96.829 31.028 72.926 0 89.6-24.292 93.005-32.281 2.4348-5.7135 3.6963-16.038 3.6963-24.711 0-2.099-0.0531-3.7751-0.13233-5.4209 0-0.13338-0.0386-0.2056-0.084-0.21192zm-6.7822 42.102c-0.0423 0.006-0.098 0.0473-0.15771 0.13672-15.044 22.139-58.609 35.948-103.59 35.948-31.796 0-66.007-10.168-79.401-29.582-0.132-0.1795-0.26361-0.10248-0.18311 0.10352 12.478 26.521 50.331 41.008 97.093 41.008 24.615 0 51.665-6.7097 67.842-19.992 4.427-3.6195 8.6439-8.4357 12.421-14.909 2.174-3.7248 4.3005-8.1498 6.0327-12.5 0.0481-0.1325 0.0149-0.22307-0.0557-0.21387zm-27.101 38.496c-0.0361 0.003-0.0823 0.0187-0.13477 0.0498-7.8902 5.2698-30.379 16.772-65.793 16.772-30.776 0-50.226-6.8673-61.209-12.998-0.21025-0.10375-0.28763 0.0543-0.12988 0.1836 16.959 13.128 38.245 21.015 61.338 21.015 25.273 0 48.312-9.3827 65.896-24.785 0.16013-0.14119 0.14097-0.24648 0.0327-0.23779z"/></svg>
