<?xml version="1.0" ?><!DOCTYPE svg  PUBLIC '-//W3C//DTD SVG 1.1//EN'  'http://www.w3.org/Graphics/SVG/1.1/DTD/svg11.dtd'><svg height="512px" style="enable-background:new 0 0 512 512;" version="1.1" viewBox="0 0 512 512" width="512px" xml:space="preserve" xmlns="http://www.w3.org/2000/svg" xmlns:xlink="http://www.w3.org/1999/xlink"><g id="形状_1_1_" style="enable-background:new    ;"><g id="形状_1"><g><path d="M485.809,217.462c-3.112-20.197-39.091-33.063-92.858-36.113     c-67.554-3.832-203.316,12.896-291.688,50.204c1.904-0.406,3.98-0.592,6.158-0.592c6.777,0,16.173,1.662,16.173,12.086v3.371     h-11.945c0,0,0-2.079,0-2.966c0-2.615-1.654-4.352-4.457-4.352c-3.021,0-4.061,1.705-4.387,3.23     c-0.128,0.525-0.185,1.542,0.045,2.508c1.366,5.619,19.543,8.595,21.562,18.656c0.193,1.015,0.629,3.708,0.057,7.841     c-1.162,8.021-8.275,10.976-16.935,10.976c-9.006,0-17.424-3.224-17.424-13.94v-3.663h12.866l0.008,4.612     c0,2.619,1.792,4.365,4.792,4.365c3.205,0,4.285-1.634,4.673-3.241c0.239-0.9,0.378-2.382-0.09-3.539     c-2.474-6.195-19.504-9.033-21.585-18.833c-0.502-2.419-0.446-4.307-0.091-6.462c0.523-3.223,2.011-5.597,4.173-7.274     c-22.073,9.837-40.843,21.026-54.34,33.577c-10.383,9.655-15.659,18.9-14.302,27.715c2.421,15.722,20.459,24.526,46.608,30.293     c42.863,9.452,114.903,8.116,187.566-3.363c55.378-8.75,111.035-23.253,153.473-41.7c-1.751,0.343-3.618,0.5-5.534,0.5     c-8.48,0-16.059-3.097-16.842-11.838c-0.162-1.609-0.195-2.289-0.195-3.162v-20.151c0-0.88,0.146-2.349,0.242-3.173     c1.055-8.962,8.314-11.835,16.825-11.835c8.494,0,15.9,2.85,16.809,11.835c0.146,1.531,0.088,3.173,0.088,3.173v1.575h-12.069     v-2.663c0,0,0-1.159-0.15-1.847c-0.207-1.044-1.115-3.474-4.776-3.474c-3.503,0-4.54,2.307-4.771,3.474     c-0.17,0.639-0.217,1.489-0.217,2.264v21.904c0,0.623,0.034,1.286,0.129,1.823c0.204,1.296,1.409,3.497,4.883,3.497     c3.477,0,4.704-2.201,4.902-3.497c0.101-0.537,0.139-1.2,0.126-1.823v-6.936h-4.915v-6.993h16.954v12.847     c-0.024,0.873-0.038,1.553-0.171,3.162c-0.326,3.543-1.757,6.158-3.909,8.016c17.99-8.332,33.26-17.408,44.646-27.076     C478.291,239.951,487.466,228.221,485.809,217.462z M158.707,280.418l-6.525-44.374l-6.695,44.374h-12.943l8.878-47.926h21.302     l8.838,47.926H158.707z M222.404,280.418l-0.327-44.374l-8.253,44.374h-12.151l-8.239-44.374l-0.322,44.374h-11.977l1.03-47.926     h19.558l6.042,37.456l6.048-37.456h19.525l1.072,47.926H222.404z M280.119,271.202c-1.139,7.934-8.209,10.856-16.767,10.856     c-8.938,0-17.238-3.2-17.238-13.791v-3.659h12.716l0.006,4.6c0,2.587,1.798,4.305,4.776,4.305c3.176,0,4.258-1.607,4.619-3.2     c0.227-0.875,0.347-2.356-0.084-3.514c-2.447-6.122-19.315-8.938-21.366-18.628c-0.528-2.395-0.45-4.272-0.114-6.385     c1.256-7.768,8.154-10.555,16.589-10.555c6.702,0,15.965,1.621,15.965,11.95v3.336h-11.824c0,0,0-2.057,0-2.923     c0-2.591-1.615-4.313-4.388-4.313c-2.962,0-3.997,1.669-4.341,3.204c-0.11,0.525-0.171,1.525,0.047,2.476     c1.354,5.545,19.33,8.532,21.318,18.475C280.245,264.441,280.66,267.107,280.119,271.202z M325.076,270.016     c-0.86,8.945-7.903,11.858-16.733,11.858c-8.815,0-15.865-2.913-16.705-11.858c-0.044-0.472-0.114-2.28-0.102-3.173v-34.351     h12.116v35.456c-0.012,0.613,0,1.309,0.129,1.813c0.227,1.194,1.263,3.486,4.562,3.486c3.339,0,4.349-2.292,4.605-3.486     c0.101-0.505,0.124-1.2,0.101-1.813v-35.456h12.134v34.351C325.226,267.735,325.134,269.544,325.076,270.016z M378.722,279.914     h-17.058l-12.121-39.818l0.68,39.818h-11.752v-47.422h17.784l11.278,38.582l-0.655-38.582h11.844V279.914z" style="fill-rule:evenodd;clip-rule:evenodd;fill:#0C4DA2;"/></g></g></g><g id="形状_2_1_" style="enable-background:new    ;"><g id="形状_2"><g><path d="M141.276,394.507l-8.872,47.626h12.934l6.69-44.097     l6.521,44.097h12.845l-8.832-47.626H141.276z M258.486,406.899c-0.218-0.944-0.156-1.939-0.047-2.461     c0.345-1.525,1.379-3.184,4.339-3.184c2.77,0,4.384,1.71,4.384,4.286c0,0.86,0,2.903,0,2.903h11.814v-3.315     c0-10.265-9.254-11.874-15.952-11.874c-8.428,0-15.322,2.77-16.577,10.487c-0.335,2.1-0.414,3.965,0.114,6.346     c2.048,9.63,18.905,12.428,21.349,18.511c0.432,1.15,0.312,2.622,0.086,3.492c-0.363,1.582-1.443,3.181-4.617,3.181     c-2.976,0-4.771-1.707-4.771-4.278l-0.006-4.571h-12.708v3.636c0,10.525,8.294,13.704,17.225,13.704     c8.552,0,15.617-2.902,16.754-10.786c0.541-4.07,0.126-6.72-0.084-7.718C277.802,415.377,259.84,412.408,258.486,406.899z      M102.733,406.776c-0.23-0.96-0.174-1.97-0.045-2.493c0.326-1.515,1.365-3.209,4.384-3.209c2.801,0,4.453,1.725,4.453,4.323     c0,0.882,0,2.948,0,2.948h11.937v-3.351c0-10.357-9.389-12.01-16.161-12.01c-8.506,0-15.456,2.803-16.726,10.583     c-0.354,2.141-0.412,4.017,0.092,6.421c2.079,9.738,19.097,12.56,21.569,18.715c0.467,1.151,0.329,2.622,0.09,3.518     c-0.388,1.598-1.467,3.221-4.669,3.221c-2.997,0-4.788-1.735-4.788-4.339l-0.008-4.583H90.002v3.64     c0,10.65,8.413,13.854,17.412,13.854c8.653,0,15.761-2.936,16.922-10.907c0.571-4.106,0.135-6.784-0.058-7.791     C122.262,415.317,104.098,412.359,102.733,406.776z M213.617,394.507l-6.044,37.223l-6.038-37.223h-19.543l-1.03,47.626h11.969     l0.321-44.097l8.233,44.097h12.142l8.247-44.097l0.327,44.097h11.999l-1.072-47.626H213.617z M324.904,394.507h-12.125v35.234     c0.024,0.61,0,1.301-0.102,1.802c-0.256,1.188-1.265,3.464-4.601,3.464c-3.298,0-4.332-2.276-4.559-3.464     c-0.129-0.501-0.141-1.191-0.129-1.802v-35.234h-12.106v34.136c-0.014,0.887,0.057,2.684,0.101,3.152     c0.839,8.89,7.884,11.785,16.693,11.785c8.823,0,15.86-2.896,16.722-11.785c0.058-0.469,0.149-2.266,0.105-3.152V394.507z      M408.057,415.394v6.95h4.91v6.893c0.014,0.619-0.024,1.277-0.125,1.812c-0.198,1.287-1.426,3.475-4.898,3.475     c-3.472,0-4.676-2.188-4.881-3.475c-0.093-0.534-0.128-1.192-0.128-1.812v-21.768c0-0.77,0.046-1.614,0.218-2.25     c0.229-1.16,1.265-3.452,4.767-3.452c3.657,0,4.566,2.414,4.773,3.452c0.149,0.684,0.149,1.836,0.149,1.836v2.646h12.061v-1.565     c0,0,0.057-1.631-0.087-3.153c-0.909-8.929-8.309-11.76-16.797-11.76c-8.506,0-15.76,2.854-16.814,11.76     c-0.096,0.82-0.24,2.279-0.24,3.153v20.025c0,0.867,0.032,1.543,0.195,3.143c0.78,8.687,8.354,11.764,16.827,11.764     c8.521,0,16.035-3.077,16.841-11.764c0.132-1.6,0.146-2.275,0.171-3.143v-12.767H408.057z M367.225,432.848l-11.271-38.341     h-17.772v47.125h11.744l-0.679-39.569l12.112,39.569h17.046v-47.125H366.57L367.225,432.848z" style="fill-rule:evenodd;clip-rule:evenodd;fill:#DCDCDC;"/></g></g></g></svg>